<?xml version="1.0" encoding="utf-8" standalone="no"?>
<!DOCTYPE svg PUBLIC "-//W3C//DTD SVG 1.1//EN"
  "http://www.w3.org/Graphics/SVG/1.1/DTD/svg11.dtd">
<svg xmlns:xlink="http://www.w3.org/1999/xlink" width="462.857031pt" height="354.939062pt" viewBox="0 0 462.857031 354.939062" xmlns="http://www.w3.org/2000/svg" version="1.1">
 <metadata>
  <rdf:RDF xmlns:dc="http://purl.org/dc/elements/1.1/" xmlns:cc="http://creativecommons.org/ns#" xmlns:rdf="http://www.w3.org/1999/02/22-rdf-syntax-ns#">
   <cc:Work>
    <dc:type rdf:resource="http://purl.org/dc/dcmitype/StillImage"/>
    <dc:date>2022-09-11T15:28:05.329202</dc:date>
    <dc:format>image/svg+xml</dc:format>
    <dc:creator>
     <cc:Agent>
      <dc:title>Matplotlib v3.5.1, https://matplotlib.org/</dc:title>
     </cc:Agent>
    </dc:creator>
   </cc:Work>
  </rdf:RDF>
 </metadata>
 <defs>
  <style type="text/css">*{stroke-linejoin: round; stroke-linecap: butt}</style>
 </defs>
 <g id="figure_1">
  <g id="patch_1">
   <path d="M 0 354.939062 
L 462.857031 354.939062 
L 462.857031 0 
L 0 0 
L 0 354.939062 
z
" style="fill: none"/>
  </g>
  <g id="axes_1">
   <g id="patch_2">
    <path d="M 59.657031 300.407812 
L 455.657031 300.407812 
L 455.657031 12.407812 
L 59.657031 12.407812 
z
" style="fill: #ffffff"/>
   </g>
   <g id="patch_3">
    <path d="M 77.657031 300.407812 
L 85.00397 300.407812 
L 85.00397 299.415672 
L 77.657031 299.415672 
z
" clip-path="url(#p01ef41166e)" style="fill: #130074; opacity: 0.75"/>
   </g>
   <g id="patch_4">
    <path d="M 85.00397 300.407812 
L 92.350909 300.407812 
L 92.350909 298.172885 
L 85.00397 298.172885 
z
" clip-path="url(#p01ef41166e)" style="fill: #130074; opacity: 0.75"/>
   </g>
   <g id="patch_5">
    <path d="M 92.350909 300.407812 
L 99.697848 300.407812 
L 99.697848 298.225103 
L 92.350909 298.225103 
z
" clip-path="url(#p01ef41166e)" style="fill: #130074; opacity: 0.75"/>
   </g>
   <g id="patch_6">
    <path d="M 99.697848 300.407812 
L 107.044786 300.407812 
L 107.044786 297.222519 
L 99.697848 297.222519 
z
" clip-path="url(#p01ef41166e)" style="fill: #130074; opacity: 0.75"/>
   </g>
   <g id="patch_7">
    <path d="M 107.044786 300.407812 
L 114.391725 300.407812 
L 114.391725 294.935373 
L 107.044786 294.935373 
z
" clip-path="url(#p01ef41166e)" style="fill: #130074; opacity: 0.75"/>
   </g>
   <g id="patch_8">
    <path d="M 114.391725 300.407812 
L 121.738664 300.407812 
L 121.738664 294.078999 
L 114.391725 294.078999 
z
" clip-path="url(#p01ef41166e)" style="fill: #130074; opacity: 0.75"/>
   </g>
   <g id="patch_9">
    <path d="M 121.738664 300.407812 
L 129.085603 300.407812 
L 129.085603 293.139077 
L 121.738664 293.139077 
z
" clip-path="url(#p01ef41166e)" style="fill: #130074; opacity: 0.75"/>
   </g>
   <g id="patch_10">
    <path d="M 129.085603 300.407812 
L 136.432541 300.407812 
L 136.432541 292.940649 
L 129.085603 292.940649 
z
" clip-path="url(#p01ef41166e)" style="fill: #130074; opacity: 0.75"/>
   </g>
   <g id="patch_11">
    <path d="M 136.432541 300.407812 
L 143.77948 300.407812 
L 143.77948 293.201738 
L 136.432541 293.201738 
z
" clip-path="url(#p01ef41166e)" style="fill: #130074; opacity: 0.75"/>
   </g>
   <g id="patch_12">
    <path d="M 143.77948 300.407812 
L 151.126419 300.407812 
L 151.126419 292.731777 
L 143.77948 292.731777 
z
" clip-path="url(#p01ef41166e)" style="fill: #130074; opacity: 0.75"/>
   </g>
   <g id="patch_13">
    <path d="M 151.126419 300.407812 
L 158.473358 300.407812 
L 158.473358 292.084274 
L 151.126419 292.084274 
z
" clip-path="url(#p01ef41166e)" style="fill: #130074; opacity: 0.75"/>
   </g>
   <g id="patch_14">
    <path d="M 158.473358 300.407812 
L 165.820297 300.407812 
L 165.820297 291.290562 
L 158.473358 291.290562 
z
" clip-path="url(#p01ef41166e)" style="fill: #130074; opacity: 0.75"/>
   </g>
   <g id="patch_15">
    <path d="M 165.820297 300.407812 
L 173.167235 300.407812 
L 173.167235 290.413301 
L 165.820297 290.413301 
z
" clip-path="url(#p01ef41166e)" style="fill: #130074; opacity: 0.75"/>
   </g>
   <g id="patch_16">
    <path d="M 173.167235 300.407812 
L 180.514174 300.407812 
L 180.514174 290.110437 
L 173.167235 290.110437 
z
" clip-path="url(#p01ef41166e)" style="fill: #130074; opacity: 0.75"/>
   </g>
   <g id="patch_17">
    <path d="M 180.514174 300.407812 
L 187.861113 300.407812 
L 187.861113 289.379386 
L 180.514174 289.379386 
z
" clip-path="url(#p01ef41166e)" style="fill: #130074; opacity: 0.75"/>
   </g>
   <g id="patch_18">
    <path d="M 187.861113 300.407812 
L 195.208052 300.407812 
L 195.208052 288.763214 
L 187.861113 288.763214 
z
" clip-path="url(#p01ef41166e)" style="fill: #130074; opacity: 0.75"/>
   </g>
   <g id="patch_19">
    <path d="M 195.208052 300.407812 
L 202.55499 300.407812 
L 202.55499 288.282809 
L 195.208052 288.282809 
z
" clip-path="url(#p01ef41166e)" style="fill: #130074; opacity: 0.75"/>
   </g>
   <g id="patch_20">
    <path d="M 202.55499 300.407812 
L 209.901929 300.407812 
L 209.901929 287.238451 
L 202.55499 287.238451 
z
" clip-path="url(#p01ef41166e)" style="fill: #130074; opacity: 0.75"/>
   </g>
   <g id="patch_21">
    <path d="M 209.901929 300.407812 
L 217.248868 300.407812 
L 217.248868 286.120987 
L 209.901929 286.120987 
z
" clip-path="url(#p01ef41166e)" style="fill: #130074; opacity: 0.75"/>
   </g>
   <g id="patch_22">
    <path d="M 217.248868 300.407812 
L 224.595807 300.407812 
L 224.595807 285.118403 
L 217.248868 285.118403 
z
" clip-path="url(#p01ef41166e)" style="fill: #130074; opacity: 0.75"/>
   </g>
   <g id="patch_23">
    <path d="M 224.595807 300.407812 
L 231.942746 300.407812 
L 231.942746 284.679772 
L 224.595807 284.679772 
z
" clip-path="url(#p01ef41166e)" style="fill: #130074; opacity: 0.75"/>
   </g>
   <g id="patch_24">
    <path d="M 231.942746 300.407812 
L 239.289684 300.407812 
L 239.289684 283.520534 
L 231.942746 283.520534 
z
" clip-path="url(#p01ef41166e)" style="fill: #130074; opacity: 0.75"/>
   </g>
   <g id="patch_25">
    <path d="M 239.289684 300.407812 
L 246.636623 300.407812 
L 246.636623 283.593639 
L 239.289684 283.593639 
z
" clip-path="url(#p01ef41166e)" style="fill: #130074; opacity: 0.75"/>
   </g>
   <g id="patch_26">
    <path d="M 246.636623 300.407812 
L 253.983562 300.407812 
L 253.983562 282.225529 
L 246.636623 282.225529 
z
" clip-path="url(#p01ef41166e)" style="fill: #130074; opacity: 0.75"/>
   </g>
   <g id="patch_27">
    <path d="M 253.983562 300.407812 
L 261.330501 300.407812 
L 261.330501 281.630245 
L 253.983562 281.630245 
z
" clip-path="url(#p01ef41166e)" style="fill: #130074; opacity: 0.75"/>
   </g>
   <g id="patch_28">
    <path d="M 261.330501 300.407812 
L 268.677439 300.407812 
L 268.677439 280.700766 
L 261.330501 280.700766 
z
" clip-path="url(#p01ef41166e)" style="fill: #130074; opacity: 0.75"/>
   </g>
   <g id="patch_29">
    <path d="M 268.677439 300.407812 
L 276.024378 300.407812 
L 276.024378 278.956687 
L 268.677439 278.956687 
z
" clip-path="url(#p01ef41166e)" style="fill: #130074; opacity: 0.75"/>
   </g>
   <g id="patch_30">
    <path d="M 276.024378 300.407812 
L 283.371317 300.407812 
L 283.371317 278.027208 
L 276.024378 278.027208 
z
" clip-path="url(#p01ef41166e)" style="fill: #130074; opacity: 0.75"/>
   </g>
   <g id="patch_31">
    <path d="M 283.371317 300.407812 
L 290.718256 300.407812 
L 290.718256 277.035067 
L 283.371317 277.035067 
z
" clip-path="url(#p01ef41166e)" style="fill: #130074; opacity: 0.75"/>
   </g>
   <g id="patch_32">
    <path d="M 290.718256 300.407812 
L 298.065195 300.407812 
L 298.065195 275.196996 
L 290.718256 275.196996 
z
" clip-path="url(#p01ef41166e)" style="fill: #130074; opacity: 0.75"/>
   </g>
   <g id="patch_33">
    <path d="M 298.065195 300.407812 
L 305.412133 300.407812 
L 305.412133 273.17094 
L 298.065195 273.17094 
z
" clip-path="url(#p01ef41166e)" style="fill: #130074; opacity: 0.75"/>
   </g>
   <g id="patch_34">
    <path d="M 305.412133 300.407812 
L 312.759072 300.407812 
L 312.759072 272.742753 
L 305.412133 272.742753 
z
" clip-path="url(#p01ef41166e)" style="fill: #130074; opacity: 0.75"/>
   </g>
   <g id="patch_35">
    <path d="M 312.759072 300.407812 
L 320.106011 300.407812 
L 320.106011 272.335453 
L 312.759072 272.335453 
z
" clip-path="url(#p01ef41166e)" style="fill: #130074; opacity: 0.75"/>
   </g>
   <g id="patch_36">
    <path d="M 320.106011 300.407812 
L 327.45295 300.407812 
L 327.45295 271.447749 
L 320.106011 271.447749 
z
" clip-path="url(#p01ef41166e)" style="fill: #130074; opacity: 0.75"/>
   </g>
   <g id="patch_37">
    <path d="M 327.45295 300.407812 
L 334.799888 300.407812 
L 334.799888 268.252011 
L 327.45295 268.252011 
z
" clip-path="url(#p01ef41166e)" style="fill: #130074; opacity: 0.75"/>
   </g>
   <g id="patch_38">
    <path d="M 334.799888 300.407812 
L 342.146827 300.407812 
L 342.146827 267.165878 
L 334.799888 267.165878 
z
" clip-path="url(#p01ef41166e)" style="fill: #130074; opacity: 0.75"/>
   </g>
   <g id="patch_39">
    <path d="M 342.146827 300.407812 
L 349.493766 300.407812 
L 349.493766 265.244258 
L 342.146827 265.244258 
z
" clip-path="url(#p01ef41166e)" style="fill: #130074; opacity: 0.75"/>
   </g>
   <g id="patch_40">
    <path d="M 349.493766 300.407812 
L 356.840705 300.407812 
L 356.840705 265.338251 
L 349.493766 265.338251 
z
" clip-path="url(#p01ef41166e)" style="fill: #130074; opacity: 0.75"/>
   </g>
   <g id="patch_41">
    <path d="M 356.840705 300.407812 
L 364.187643 300.407812 
L 364.187643 263.447962 
L 356.840705 263.447962 
z
" clip-path="url(#p01ef41166e)" style="fill: #130074; opacity: 0.75"/>
   </g>
   <g id="patch_42">
    <path d="M 364.187643 300.407812 
L 371.534582 300.407812 
L 371.534582 261.787432 
L 364.187643 261.787432 
z
" clip-path="url(#p01ef41166e)" style="fill: #130074; opacity: 0.75"/>
   </g>
   <g id="patch_43">
    <path d="M 371.534582 300.407812 
L 378.881521 300.407812 
L 378.881521 260.419322 
L 371.534582 260.419322 
z
" clip-path="url(#p01ef41166e)" style="fill: #130074; opacity: 0.75"/>
   </g>
   <g id="patch_44">
    <path d="M 378.881521 300.407812 
L 386.22846 300.407812 
L 386.22846 253.965186 
L 378.881521 253.965186 
z
" clip-path="url(#p01ef41166e)" style="fill: #130074; opacity: 0.75"/>
   </g>
   <g id="patch_45">
    <path d="M 386.22846 300.407812 
L 393.575399 300.407812 
L 393.575399 251.960017 
L 386.22846 251.960017 
z
" clip-path="url(#p01ef41166e)" style="fill: #130074; opacity: 0.75"/>
   </g>
   <g id="patch_46">
    <path d="M 393.575399 300.407812 
L 400.922337 300.407812 
L 400.922337 241.140462 
L 393.575399 241.140462 
z
" clip-path="url(#p01ef41166e)" style="fill: #130074; opacity: 0.75"/>
   </g>
   <g id="patch_47">
    <path d="M 400.922337 300.407812 
L 408.269276 300.407812 
L 408.269276 232.764706 
L 400.922337 232.764706 
z
" clip-path="url(#p01ef41166e)" style="fill: #130074; opacity: 0.75"/>
   </g>
   <g id="patch_48">
    <path d="M 408.269276 300.407812 
L 415.616215 300.407812 
L 415.616215 208.420707 
L 408.269276 208.420707 
z
" clip-path="url(#p01ef41166e)" style="fill: #130074; opacity: 0.75"/>
   </g>
   <g id="patch_49">
    <path d="M 415.616215 300.407812 
L 422.963154 300.407812 
L 422.963154 176.515552 
L 415.616215 176.515552 
z
" clip-path="url(#p01ef41166e)" style="fill: #130074; opacity: 0.75"/>
   </g>
   <g id="patch_50">
    <path d="M 422.963154 300.407812 
L 430.310092 300.407812 
L 430.310092 133.362655 
L 422.963154 133.362655 
z
" clip-path="url(#p01ef41166e)" style="fill: #130074; opacity: 0.75"/>
   </g>
   <g id="patch_51">
    <path d="M 430.310092 300.407812 
L 437.657031 300.407812 
L 437.657031 64.069462 
L 430.310092 64.069462 
z
" clip-path="url(#p01ef41166e)" style="fill: #130074; opacity: 0.75"/>
   </g>
   <g id="patch_52">
    <path d="M 77.657031 300.407812 
L 85.00397 300.407812 
L 85.00397 296.585283 
L 77.657031 296.585283 
z
" clip-path="url(#p01ef41166e)" style="fill: #830518; opacity: 0.75"/>
   </g>
   <g id="patch_53">
    <path d="M 85.00397 300.407812 
L 92.350909 300.407812 
L 92.350909 294.651273 
L 85.00397 294.651273 
z
" clip-path="url(#p01ef41166e)" style="fill: #830518; opacity: 0.75"/>
   </g>
   <g id="patch_54">
    <path d="M 92.350909 300.407812 
L 99.697848 300.407812 
L 99.697848 292.152585 
L 92.350909 292.152585 
z
" clip-path="url(#p01ef41166e)" style="fill: #830518; opacity: 0.75"/>
   </g>
   <g id="patch_55">
    <path d="M 99.697848 300.407812 
L 107.044786 300.407812 
L 107.044786 289.258664 
L 99.697848 289.258664 
z
" clip-path="url(#p01ef41166e)" style="fill: #830518; opacity: 0.75"/>
   </g>
   <g id="patch_56">
    <path d="M 107.044786 300.407812 
L 114.391725 300.407812 
L 114.391725 286.775418 
L 107.044786 286.775418 
z
" clip-path="url(#p01ef41166e)" style="fill: #830518; opacity: 0.75"/>
   </g>
   <g id="patch_57">
    <path d="M 114.391725 300.407812 
L 121.738664 300.407812 
L 121.738664 285.97911 
L 114.391725 285.97911 
z
" clip-path="url(#p01ef41166e)" style="fill: #830518; opacity: 0.75"/>
   </g>
   <g id="patch_58">
    <path d="M 121.738664 300.407812 
L 129.085603 300.407812 
L 129.085603 285.522944 
L 121.738664 285.522944 
z
" clip-path="url(#p01ef41166e)" style="fill: #830518; opacity: 0.75"/>
   </g>
   <g id="patch_59">
    <path d="M 129.085603 300.407812 
L 136.432541 300.407812 
L 136.432541 284.893576 
L 129.085603 284.893576 
z
" clip-path="url(#p01ef41166e)" style="fill: #830518; opacity: 0.75"/>
   </g>
   <g id="patch_60">
    <path d="M 136.432541 300.407812 
L 143.77948 300.407812 
L 143.77948 283.606045 
L 136.432541 283.606045 
z
" clip-path="url(#p01ef41166e)" style="fill: #830518; opacity: 0.75"/>
   </g>
   <g id="patch_61">
    <path d="M 143.77948 300.407812 
L 151.126419 300.407812 
L 151.126419 282.903641 
L 143.77948 282.903641 
z
" clip-path="url(#p01ef41166e)" style="fill: #830518; opacity: 0.75"/>
   </g>
   <g id="patch_62">
    <path d="M 151.126419 300.407812 
L 158.473358 300.407812 
L 158.473358 282.796799 
L 151.126419 282.796799 
z
" clip-path="url(#p01ef41166e)" style="fill: #830518; opacity: 0.75"/>
   </g>
   <g id="patch_63">
    <path d="M 158.473358 300.407812 
L 165.820297 300.407812 
L 165.820297 281.732133 
L 158.473358 281.732133 
z
" clip-path="url(#p01ef41166e)" style="fill: #830518; opacity: 0.75"/>
   </g>
   <g id="patch_64">
    <path d="M 165.820297 300.407812 
L 173.167235 300.407812 
L 173.167235 279.633686 
L 165.820297 279.633686 
z
" clip-path="url(#p01ef41166e)" style="fill: #830518; opacity: 0.75"/>
   </g>
   <g id="patch_65">
    <path d="M 173.167235 300.407812 
L 180.514174 300.407812 
L 180.514174 276.573242 
L 173.167235 276.573242 
z
" clip-path="url(#p01ef41166e)" style="fill: #830518; opacity: 0.75"/>
   </g>
   <g id="patch_66">
    <path d="M 180.514174 300.407812 
L 187.861113 300.407812 
L 187.861113 274.627963 
L 180.514174 274.627963 
z
" clip-path="url(#p01ef41166e)" style="fill: #830518; opacity: 0.75"/>
   </g>
   <g id="patch_67">
    <path d="M 187.861113 300.407812 
L 195.208052 300.407812 
L 195.208052 272.264497 
L 187.861113 272.264497 
z
" clip-path="url(#p01ef41166e)" style="fill: #830518; opacity: 0.75"/>
   </g>
   <g id="patch_68">
    <path d="M 195.208052 300.407812 
L 202.55499 300.407812 
L 202.55499 267.381892 
L 195.208052 267.381892 
z
" clip-path="url(#p01ef41166e)" style="fill: #830518; opacity: 0.75"/>
   </g>
   <g id="patch_69">
    <path d="M 202.55499 300.407812 
L 209.901929 300.407812 
L 209.901929 264.035562 
L 202.55499 264.035562 
z
" clip-path="url(#p01ef41166e)" style="fill: #830518; opacity: 0.75"/>
   </g>
   <g id="patch_70">
    <path d="M 209.901929 300.407812 
L 217.248868 300.407812 
L 217.248868 264.298911 
L 209.901929 264.298911 
z
" clip-path="url(#p01ef41166e)" style="fill: #830518; opacity: 0.75"/>
   </g>
   <g id="patch_71">
    <path d="M 217.248868 300.407812 
L 224.595807 300.407812 
L 224.595807 258.391707 
L 217.248868 258.391707 
z
" clip-path="url(#p01ef41166e)" style="fill: #830518; opacity: 0.75"/>
   </g>
   <g id="patch_72">
    <path d="M 224.595807 300.407812 
L 231.942746 300.407812 
L 231.942746 246.827293 
L 224.595807 246.827293 
z
" clip-path="url(#p01ef41166e)" style="fill: #830518; opacity: 0.75"/>
   </g>
   <g id="patch_73">
    <path d="M 231.942746 300.407812 
L 239.289684 300.407812 
L 239.289684 233.975765 
L 231.942746 233.975765 
z
" clip-path="url(#p01ef41166e)" style="fill: #830518; opacity: 0.75"/>
   </g>
   <g id="patch_74">
    <path d="M 239.289684 300.407812 
L 246.636623 300.407812 
L 246.636623 233.585958 
L 239.289684 233.585958 
z
" clip-path="url(#p01ef41166e)" style="fill: #830518; opacity: 0.75"/>
   </g>
   <g id="patch_75">
    <path d="M 246.636623 300.407812 
L 253.983562 300.407812 
L 253.983562 231.973308 
L 246.636623 231.973308 
z
" clip-path="url(#p01ef41166e)" style="fill: #830518; opacity: 0.75"/>
   </g>
   <g id="patch_76">
    <path d="M 253.983562 300.407812 
L 261.330501 300.407812 
L 261.330501 232.385652 
L 253.983562 232.385652 
z
" clip-path="url(#p01ef41166e)" style="fill: #830518; opacity: 0.75"/>
   </g>
   <g id="patch_77">
    <path d="M 261.330501 300.407812 
L 268.677439 300.407812 
L 268.677439 236.345908 
L 261.330501 236.345908 
z
" clip-path="url(#p01ef41166e)" style="fill: #830518; opacity: 0.75"/>
   </g>
   <g id="patch_78">
    <path d="M 268.677439 300.407812 
L 276.024378 300.407812 
L 276.024378 243.922521 
L 268.677439 243.922521 
z
" clip-path="url(#p01ef41166e)" style="fill: #830518; opacity: 0.75"/>
   </g>
   <g id="patch_79">
    <path d="M 276.024378 300.407812 
L 283.371317 300.407812 
L 283.371317 248.032606 
L 276.024378 248.032606 
z
" clip-path="url(#p01ef41166e)" style="fill: #830518; opacity: 0.75"/>
   </g>
   <g id="patch_80">
    <path d="M 283.371317 300.407812 
L 290.718256 300.407812 
L 290.718256 250.34599 
L 283.371317 250.34599 
z
" clip-path="url(#p01ef41166e)" style="fill: #830518; opacity: 0.75"/>
   </g>
   <g id="patch_81">
    <path d="M 290.718256 300.407812 
L 298.065195 300.407812 
L 298.065195 254.388464 
L 290.718256 254.388464 
z
" clip-path="url(#p01ef41166e)" style="fill: #830518; opacity: 0.75"/>
   </g>
   <g id="patch_82">
    <path d="M 298.065195 300.407812 
L 305.412133 300.407812 
L 305.412133 257.029469 
L 298.065195 257.029469 
z
" clip-path="url(#p01ef41166e)" style="fill: #830518; opacity: 0.75"/>
   </g>
   <g id="patch_83">
    <path d="M 305.412133 300.407812 
L 312.759072 300.407812 
L 312.759072 260.336569 
L 305.412133 260.336569 
z
" clip-path="url(#p01ef41166e)" style="fill: #830518; opacity: 0.75"/>
   </g>
   <g id="patch_84">
    <path d="M 312.759072 300.407812 
L 320.106011 300.407812 
L 320.106011 263.358199 
L 312.759072 263.358199 
z
" clip-path="url(#p01ef41166e)" style="fill: #830518; opacity: 0.75"/>
   </g>
   <g id="patch_85">
    <path d="M 320.106011 300.407812 
L 327.45295 300.407812 
L 327.45295 265.947453 
L 320.106011 265.947453 
z
" clip-path="url(#p01ef41166e)" style="fill: #830518; opacity: 0.75"/>
   </g>
   <g id="patch_86">
    <path d="M 327.45295 300.407812 
L 334.799888 300.407812 
L 334.799888 268.563417 
L 327.45295 268.563417 
z
" clip-path="url(#p01ef41166e)" style="fill: #830518; opacity: 0.75"/>
   </g>
   <g id="patch_87">
    <path d="M 334.799888 300.407812 
L 342.146827 300.407812 
L 342.146827 269.165656 
L 334.799888 269.165656 
z
" clip-path="url(#p01ef41166e)" style="fill: #830518; opacity: 0.75"/>
   </g>
   <g id="patch_88">
    <path d="M 342.146827 300.407812 
L 349.493766 300.407812 
L 349.493766 270.054616 
L 342.146827 270.054616 
z
" clip-path="url(#p01ef41166e)" style="fill: #830518; opacity: 0.75"/>
   </g>
   <g id="patch_89">
    <path d="M 349.493766 300.407812 
L 356.840705 300.407812 
L 356.840705 270.472803 
L 349.493766 270.472803 
z
" clip-path="url(#p01ef41166e)" style="fill: #830518; opacity: 0.75"/>
   </g>
   <g id="patch_90">
    <path d="M 356.840705 300.407812 
L 364.187643 300.407812 
L 364.187643 270.562117 
L 356.840705 270.562117 
z
" clip-path="url(#p01ef41166e)" style="fill: #830518; opacity: 0.75"/>
   </g>
   <g id="patch_91">
    <path d="M 364.187643 300.407812 
L 371.534582 300.407812 
L 371.534582 271.740302 
L 364.187643 271.740302 
z
" clip-path="url(#p01ef41166e)" style="fill: #830518; opacity: 0.75"/>
   </g>
   <g id="patch_92">
    <path d="M 371.534582 300.407812 
L 378.881521 300.407812 
L 378.881521 271.916008 
L 371.534582 271.916008 
z
" clip-path="url(#p01ef41166e)" style="fill: #830518; opacity: 0.75"/>
   </g>
   <g id="patch_93">
    <path d="M 378.881521 300.407812 
L 386.22846 300.407812 
L 386.22846 273.083342 
L 378.881521 273.083342 
z
" clip-path="url(#p01ef41166e)" style="fill: #830518; opacity: 0.75"/>
   </g>
   <g id="patch_94">
    <path d="M 386.22846 300.407812 
L 393.575399 300.407812 
L 393.575399 274.592905 
L 386.22846 274.592905 
z
" clip-path="url(#p01ef41166e)" style="fill: #830518; opacity: 0.75"/>
   </g>
   <g id="patch_95">
    <path d="M 393.575399 300.407812 
L 400.922337 300.407812 
L 400.922337 274.204767 
L 393.575399 274.204767 
z
" clip-path="url(#p01ef41166e)" style="fill: #830518; opacity: 0.75"/>
   </g>
   <g id="patch_96">
    <path d="M 400.922337 300.407812 
L 408.269276 300.407812 
L 408.269276 274.838308 
L 400.922337 274.838308 
z
" clip-path="url(#p01ef41166e)" style="fill: #830518; opacity: 0.75"/>
   </g>
   <g id="patch_97">
    <path d="M 408.269276 300.407812 
L 415.616215 300.407812 
L 415.616215 275.085381 
L 408.269276 275.085381 
z
" clip-path="url(#p01ef41166e)" style="fill: #830518; opacity: 0.75"/>
   </g>
   <g id="patch_98">
    <path d="M 415.616215 300.407812 
L 422.963154 300.407812 
L 422.963154 274.484393 
L 415.616215 274.484393 
z
" clip-path="url(#p01ef41166e)" style="fill: #830518; opacity: 0.75"/>
   </g>
   <g id="patch_99">
    <path d="M 422.963154 300.407812 
L 430.310092 300.407812 
L 430.310092 275.866247 
L 422.963154 275.866247 
z
" clip-path="url(#p01ef41166e)" style="fill: #830518; opacity: 0.75"/>
   </g>
   <g id="patch_100">
    <path d="M 430.310092 300.407812 
L 437.657031 300.407812 
L 437.657031 274.832465 
L 430.310092 274.832465 
z
" clip-path="url(#p01ef41166e)" style="fill: #830518; opacity: 0.75"/>
   </g>
   <g id="matplotlib.axis_1">
    <g id="xtick_1">
     <g id="line2d_1">
      <defs>
       <path id="m0da7aae903" d="M 0 0 
L 0 3.5 
" style="stroke: #000000; stroke-width: 0.8"/>
      </defs>
      <g>
       <use xlink:href="#m0da7aae903" x="77.657031" y="300.407812" style="stroke: #000000; stroke-width: 0.8"/>
      </g>
     </g>
     <g id="text_1">
      <!-- 0 -->
      <g transform="translate(73.907031 317.823437)scale(0.15 -0.15)">
       <defs>
        <path id="TimesNewRomanPSMT-30" d="M 231 2094 
Q 231 2819 450 3342 
Q 669 3866 1031 4122 
Q 1313 4325 1613 4325 
Q 2100 4325 2488 3828 
Q 2972 3213 2972 2159 
Q 2972 1422 2759 906 
Q 2547 391 2217 158 
Q 1888 -75 1581 -75 
Q 975 -75 572 641 
Q 231 1244 231 2094 
z
M 844 2016 
Q 844 1141 1059 588 
Q 1238 122 1591 122 
Q 1759 122 1940 273 
Q 2122 425 2216 781 
Q 2359 1319 2359 2297 
Q 2359 3022 2209 3506 
Q 2097 3866 1919 4016 
Q 1791 4119 1609 4119 
Q 1397 4119 1231 3928 
Q 1006 3669 925 3112 
Q 844 2556 844 2016 
z
" transform="scale(0.015625)"/>
       </defs>
       <use xlink:href="#TimesNewRomanPSMT-30"/>
      </g>
     </g>
    </g>
    <g id="xtick_2">
     <g id="line2d_2">
      <g>
       <use xlink:href="#m0da7aae903" x="149.657031" y="300.407812" style="stroke: #000000; stroke-width: 0.8"/>
      </g>
     </g>
     <g id="text_2">
      <!-- 2 -->
      <g transform="translate(145.907031 317.823437)scale(0.15 -0.15)">
       <defs>
        <path id="TimesNewRomanPSMT-32" d="M 2934 816 
L 2638 0 
L 138 0 
L 138 116 
Q 1241 1122 1691 1759 
Q 2141 2397 2141 2925 
Q 2141 3328 1894 3587 
Q 1647 3847 1303 3847 
Q 991 3847 742 3664 
Q 494 3481 375 3128 
L 259 3128 
Q 338 3706 661 4015 
Q 984 4325 1469 4325 
Q 1984 4325 2329 3994 
Q 2675 3663 2675 3213 
Q 2675 2891 2525 2569 
Q 2294 2063 1775 1497 
Q 997 647 803 472 
L 1909 472 
Q 2247 472 2383 497 
Q 2519 522 2628 598 
Q 2738 675 2819 816 
L 2934 816 
z
" transform="scale(0.015625)"/>
       </defs>
       <use xlink:href="#TimesNewRomanPSMT-32"/>
      </g>
     </g>
    </g>
    <g id="xtick_3">
     <g id="line2d_3">
      <g>
       <use xlink:href="#m0da7aae903" x="221.657031" y="300.407812" style="stroke: #000000; stroke-width: 0.8"/>
      </g>
     </g>
     <g id="text_3">
      <!-- 4 -->
      <g transform="translate(217.907031 317.823437)scale(0.15 -0.15)">
       <defs>
        <path id="TimesNewRomanPSMT-34" d="M 2978 1563 
L 2978 1119 
L 2409 1119 
L 2409 0 
L 1894 0 
L 1894 1119 
L 100 1119 
L 100 1519 
L 2066 4325 
L 2409 4325 
L 2409 1563 
L 2978 1563 
z
M 1894 1563 
L 1894 3666 
L 406 1563 
L 1894 1563 
z
" transform="scale(0.015625)"/>
       </defs>
       <use xlink:href="#TimesNewRomanPSMT-34"/>
      </g>
     </g>
    </g>
    <g id="xtick_4">
     <g id="line2d_4">
      <g>
       <use xlink:href="#m0da7aae903" x="293.657031" y="300.407812" style="stroke: #000000; stroke-width: 0.8"/>
      </g>
     </g>
     <g id="text_4">
      <!-- 6 -->
      <g transform="translate(289.907031 317.823437)scale(0.15 -0.15)">
       <defs>
        <path id="TimesNewRomanPSMT-36" d="M 2869 4325 
L 2869 4209 
Q 2456 4169 2195 4045 
Q 1934 3922 1679 3669 
Q 1425 3416 1258 3105 
Q 1091 2794 978 2366 
Q 1428 2675 1881 2675 
Q 2316 2675 2634 2325 
Q 2953 1975 2953 1425 
Q 2953 894 2631 456 
Q 2244 -75 1606 -75 
Q 1172 -75 869 213 
Q 275 772 275 1663 
Q 275 2231 503 2743 
Q 731 3256 1154 3653 
Q 1578 4050 1965 4187 
Q 2353 4325 2688 4325 
L 2869 4325 
z
M 925 2138 
Q 869 1716 869 1456 
Q 869 1156 980 804 
Q 1091 453 1309 247 
Q 1469 100 1697 100 
Q 1969 100 2183 356 
Q 2397 613 2397 1088 
Q 2397 1622 2184 2012 
Q 1972 2403 1581 2403 
Q 1463 2403 1327 2353 
Q 1191 2303 925 2138 
z
" transform="scale(0.015625)"/>
       </defs>
       <use xlink:href="#TimesNewRomanPSMT-36"/>
      </g>
     </g>
    </g>
    <g id="xtick_5">
     <g id="line2d_5">
      <g>
       <use xlink:href="#m0da7aae903" x="365.657031" y="300.407812" style="stroke: #000000; stroke-width: 0.8"/>
      </g>
     </g>
     <g id="text_5">
      <!-- 8 -->
      <g transform="translate(361.907031 317.823437)scale(0.15 -0.15)">
       <defs>
        <path id="TimesNewRomanPSMT-38" d="M 1228 2134 
Q 725 2547 579 2797 
Q 434 3047 434 3316 
Q 434 3728 753 4026 
Q 1072 4325 1600 4325 
Q 2113 4325 2425 4047 
Q 2738 3769 2738 3413 
Q 2738 3175 2569 2928 
Q 2400 2681 1866 2347 
Q 2416 1922 2594 1678 
Q 2831 1359 2831 1006 
Q 2831 559 2490 242 
Q 2150 -75 1597 -75 
Q 994 -75 656 303 
Q 388 606 388 966 
Q 388 1247 577 1523 
Q 766 1800 1228 2134 
z
M 1719 2469 
Q 2094 2806 2194 3001 
Q 2294 3197 2294 3444 
Q 2294 3772 2109 3958 
Q 1925 4144 1606 4144 
Q 1288 4144 1088 3959 
Q 888 3775 888 3528 
Q 888 3366 970 3203 
Q 1053 3041 1206 2894 
L 1719 2469 
z
M 1375 2016 
Q 1116 1797 991 1539 
Q 866 1281 866 981 
Q 866 578 1086 336 
Q 1306 94 1647 94 
Q 1984 94 2187 284 
Q 2391 475 2391 747 
Q 2391 972 2272 1150 
Q 2050 1481 1375 2016 
z
" transform="scale(0.015625)"/>
       </defs>
       <use xlink:href="#TimesNewRomanPSMT-38"/>
      </g>
     </g>
    </g>
    <g id="xtick_6">
     <g id="line2d_6">
      <g>
       <use xlink:href="#m0da7aae903" x="437.657031" y="300.407812" style="stroke: #000000; stroke-width: 0.8"/>
      </g>
     </g>
     <g id="text_6">
      <!-- 10 -->
      <g transform="translate(430.157031 317.823437)scale(0.15 -0.15)">
       <defs>
        <path id="TimesNewRomanPSMT-31" d="M 750 3822 
L 1781 4325 
L 1884 4325 
L 1884 747 
Q 1884 391 1914 303 
Q 1944 216 2037 169 
Q 2131 122 2419 116 
L 2419 0 
L 825 0 
L 825 116 
Q 1125 122 1212 167 
Q 1300 213 1334 289 
Q 1369 366 1369 747 
L 1369 3034 
Q 1369 3497 1338 3628 
Q 1316 3728 1258 3775 
Q 1200 3822 1119 3822 
Q 1003 3822 797 3725 
L 750 3822 
z
" transform="scale(0.015625)"/>
       </defs>
       <use xlink:href="#TimesNewRomanPSMT-31"/>
       <use xlink:href="#TimesNewRomanPSMT-30" x="50"/>
      </g>
     </g>
    </g>
    <g id="text_7">
     <!-- Bumper to bumper distance (m) -->
     <g transform="translate(97.975391 342.391406)scale(0.25 -0.25)">
      <defs>
       <path id="TimesNewRomanPSMT-42" d="M 2956 2163 
Q 3397 2069 3616 1863 
Q 3919 1575 3919 1159 
Q 3919 844 3719 555 
Q 3519 266 3170 133 
Q 2822 0 2106 0 
L 106 0 
L 106 116 
L 266 116 
Q 531 116 647 284 
Q 719 394 719 750 
L 719 3488 
Q 719 3881 628 3984 
Q 506 4122 266 4122 
L 106 4122 
L 106 4238 
L 1938 4238 
Q 2450 4238 2759 4163 
Q 3228 4050 3475 3764 
Q 3722 3478 3722 3106 
Q 3722 2788 3528 2536 
Q 3334 2284 2956 2163 
z
M 1319 2331 
Q 1434 2309 1582 2298 
Q 1731 2288 1909 2288 
Q 2366 2288 2595 2386 
Q 2825 2484 2947 2687 
Q 3069 2891 3069 3131 
Q 3069 3503 2766 3765 
Q 2463 4028 1881 4028 
Q 1569 4028 1319 3959 
L 1319 2331 
z
M 1319 306 
Q 1681 222 2034 222 
Q 2600 222 2897 476 
Q 3194 731 3194 1106 
Q 3194 1353 3059 1581 
Q 2925 1809 2622 1940 
Q 2319 2072 1872 2072 
Q 1678 2072 1540 2065 
Q 1403 2059 1319 2044 
L 1319 306 
z
" transform="scale(0.015625)"/>
       <path id="TimesNewRomanPSMT-75" d="M 2709 2863 
L 2709 1128 
Q 2709 631 2732 520 
Q 2756 409 2807 365 
Q 2859 322 2928 322 
Q 3025 322 3147 375 
L 3191 266 
L 2334 -88 
L 2194 -88 
L 2194 519 
Q 1825 119 1631 15 
Q 1438 -88 1222 -88 
Q 981 -88 804 51 
Q 628 191 559 409 
Q 491 628 491 1028 
L 491 2306 
Q 491 2509 447 2587 
Q 403 2666 317 2708 
Q 231 2750 6 2747 
L 6 2863 
L 1009 2863 
L 1009 947 
Q 1009 547 1148 422 
Q 1288 297 1484 297 
Q 1619 297 1789 381 
Q 1959 466 2194 703 
L 2194 2325 
Q 2194 2569 2105 2655 
Q 2016 2741 1734 2747 
L 1734 2863 
L 2709 2863 
z
" transform="scale(0.015625)"/>
       <path id="TimesNewRomanPSMT-6d" d="M 1050 2338 
Q 1363 2650 1419 2697 
Q 1559 2816 1721 2881 
Q 1884 2947 2044 2947 
Q 2313 2947 2506 2790 
Q 2700 2634 2766 2338 
Q 3088 2713 3309 2830 
Q 3531 2947 3766 2947 
Q 3994 2947 4170 2830 
Q 4347 2713 4450 2447 
Q 4519 2266 4519 1878 
L 4519 647 
Q 4519 378 4559 278 
Q 4591 209 4675 161 
Q 4759 113 4950 113 
L 4950 0 
L 3538 0 
L 3538 113 
L 3597 113 
Q 3781 113 3884 184 
Q 3956 234 3988 344 
Q 4000 397 4000 647 
L 4000 1878 
Q 4000 2228 3916 2372 
Q 3794 2572 3525 2572 
Q 3359 2572 3192 2489 
Q 3025 2406 2788 2181 
L 2781 2147 
L 2788 2013 
L 2788 647 
Q 2788 353 2820 281 
Q 2853 209 2943 161 
Q 3034 113 3253 113 
L 3253 0 
L 1806 0 
L 1806 113 
Q 2044 113 2133 169 
Q 2222 225 2256 338 
Q 2272 391 2272 647 
L 2272 1878 
Q 2272 2228 2169 2381 
Q 2031 2581 1784 2581 
Q 1616 2581 1450 2491 
Q 1191 2353 1050 2181 
L 1050 647 
Q 1050 366 1089 281 
Q 1128 197 1204 155 
Q 1281 113 1516 113 
L 1516 0 
L 100 0 
L 100 113 
Q 297 113 375 155 
Q 453 197 493 289 
Q 534 381 534 647 
L 534 1741 
Q 534 2213 506 2350 
Q 484 2453 437 2492 
Q 391 2531 309 2531 
Q 222 2531 100 2484 
L 53 2597 
L 916 2947 
L 1050 2947 
L 1050 2338 
z
" transform="scale(0.015625)"/>
       <path id="TimesNewRomanPSMT-70" d="M -6 2578 
L 875 2934 
L 994 2934 
L 994 2266 
Q 1216 2644 1439 2795 
Q 1663 2947 1909 2947 
Q 2341 2947 2628 2609 
Q 2981 2197 2981 1534 
Q 2981 794 2556 309 
Q 2206 -88 1675 -88 
Q 1444 -88 1275 -22 
Q 1150 25 994 166 
L 994 -706 
Q 994 -1000 1030 -1079 
Q 1066 -1159 1155 -1206 
Q 1244 -1253 1478 -1253 
L 1478 -1369 
L -22 -1369 
L -22 -1253 
L 56 -1253 
Q 228 -1256 350 -1188 
Q 409 -1153 442 -1076 
Q 475 -1000 475 -688 
L 475 2019 
Q 475 2297 450 2372 
Q 425 2447 370 2484 
Q 316 2522 222 2522 
Q 147 2522 31 2478 
L -6 2578 
z
M 994 2081 
L 994 1013 
Q 994 666 1022 556 
Q 1066 375 1236 237 
Q 1406 100 1666 100 
Q 1978 100 2172 344 
Q 2425 663 2425 1241 
Q 2425 1897 2138 2250 
Q 1938 2494 1663 2494 
Q 1513 2494 1366 2419 
Q 1253 2363 994 2081 
z
" transform="scale(0.015625)"/>
       <path id="TimesNewRomanPSMT-65" d="M 681 1784 
Q 678 1147 991 784 
Q 1303 422 1725 422 
Q 2006 422 2214 576 
Q 2422 731 2563 1106 
L 2659 1044 
Q 2594 616 2278 264 
Q 1963 -88 1488 -88 
Q 972 -88 605 314 
Q 238 716 238 1394 
Q 238 2128 614 2539 
Q 991 2950 1559 2950 
Q 2041 2950 2350 2633 
Q 2659 2316 2659 1784 
L 681 1784 
z
M 681 1966 
L 2006 1966 
Q 1991 2241 1941 2353 
Q 1863 2528 1708 2628 
Q 1553 2728 1384 2728 
Q 1125 2728 920 2526 
Q 716 2325 681 1966 
z
" transform="scale(0.015625)"/>
       <path id="TimesNewRomanPSMT-72" d="M 1038 2947 
L 1038 2303 
Q 1397 2947 1775 2947 
Q 1947 2947 2059 2842 
Q 2172 2738 2172 2600 
Q 2172 2478 2090 2393 
Q 2009 2309 1897 2309 
Q 1788 2309 1652 2417 
Q 1516 2525 1450 2525 
Q 1394 2525 1328 2463 
Q 1188 2334 1038 2041 
L 1038 669 
Q 1038 431 1097 309 
Q 1138 225 1241 169 
Q 1344 113 1538 113 
L 1538 0 
L 72 0 
L 72 113 
Q 291 113 397 181 
Q 475 231 506 341 
Q 522 394 522 644 
L 522 1753 
Q 522 2253 501 2348 
Q 481 2444 426 2487 
Q 372 2531 291 2531 
Q 194 2531 72 2484 
L 41 2597 
L 906 2947 
L 1038 2947 
z
" transform="scale(0.015625)"/>
       <path id="TimesNewRomanPSMT-20" transform="scale(0.015625)"/>
       <path id="TimesNewRomanPSMT-74" d="M 1031 3803 
L 1031 2863 
L 1700 2863 
L 1700 2644 
L 1031 2644 
L 1031 788 
Q 1031 509 1111 412 
Q 1191 316 1316 316 
Q 1419 316 1516 380 
Q 1613 444 1666 569 
L 1788 569 
Q 1678 263 1478 108 
Q 1278 -47 1066 -47 
Q 922 -47 784 33 
Q 647 113 581 261 
Q 516 409 516 719 
L 516 2644 
L 63 2644 
L 63 2747 
Q 234 2816 414 2980 
Q 594 3144 734 3369 
Q 806 3488 934 3803 
L 1031 3803 
z
" transform="scale(0.015625)"/>
       <path id="TimesNewRomanPSMT-6f" d="M 1600 2947 
Q 2250 2947 2644 2453 
Q 2978 2031 2978 1484 
Q 2978 1100 2793 706 
Q 2609 313 2286 112 
Q 1963 -88 1566 -88 
Q 919 -88 538 428 
Q 216 863 216 1403 
Q 216 1797 411 2186 
Q 606 2575 925 2761 
Q 1244 2947 1600 2947 
z
M 1503 2744 
Q 1338 2744 1170 2645 
Q 1003 2547 900 2300 
Q 797 2053 797 1666 
Q 797 1041 1045 587 
Q 1294 134 1700 134 
Q 2003 134 2200 384 
Q 2397 634 2397 1244 
Q 2397 2006 2069 2444 
Q 1847 2744 1503 2744 
z
" transform="scale(0.015625)"/>
       <path id="TimesNewRomanPSMT-62" d="M 984 2369 
Q 1400 2947 1881 2947 
Q 2322 2947 2650 2570 
Q 2978 2194 2978 1541 
Q 2978 778 2472 313 
Q 2038 -88 1503 -88 
Q 1253 -88 995 3 
Q 738 94 469 275 
L 469 3241 
Q 469 3728 445 3840 
Q 422 3953 372 3993 
Q 322 4034 247 4034 
Q 159 4034 28 3984 
L -16 4094 
L 844 4444 
L 984 4444 
L 984 2369 
z
M 984 2169 
L 984 456 
Q 1144 300 1314 220 
Q 1484 141 1663 141 
Q 1947 141 2192 453 
Q 2438 766 2438 1363 
Q 2438 1913 2192 2208 
Q 1947 2503 1634 2503 
Q 1469 2503 1303 2419 
Q 1178 2356 984 2169 
z
" transform="scale(0.015625)"/>
       <path id="TimesNewRomanPSMT-64" d="M 2222 322 
Q 2013 103 1813 7 
Q 1613 -88 1381 -88 
Q 913 -88 563 304 
Q 213 697 213 1313 
Q 213 1928 600 2439 
Q 988 2950 1597 2950 
Q 1975 2950 2222 2709 
L 2222 3238 
Q 2222 3728 2198 3840 
Q 2175 3953 2125 3993 
Q 2075 4034 2000 4034 
Q 1919 4034 1784 3984 
L 1744 4094 
L 2597 4444 
L 2738 4444 
L 2738 1134 
Q 2738 631 2761 520 
Q 2784 409 2836 365 
Q 2888 322 2956 322 
Q 3041 322 3181 375 
L 3216 266 
L 2366 -88 
L 2222 -88 
L 2222 322 
z
M 2222 541 
L 2222 2016 
Q 2203 2228 2109 2403 
Q 2016 2578 1861 2667 
Q 1706 2756 1559 2756 
Q 1284 2756 1069 2509 
Q 784 2184 784 1559 
Q 784 928 1059 592 
Q 1334 256 1672 256 
Q 1956 256 2222 541 
z
" transform="scale(0.015625)"/>
       <path id="TimesNewRomanPSMT-69" d="M 928 4444 
Q 1059 4444 1151 4351 
Q 1244 4259 1244 4128 
Q 1244 3997 1151 3903 
Q 1059 3809 928 3809 
Q 797 3809 703 3903 
Q 609 3997 609 4128 
Q 609 4259 701 4351 
Q 794 4444 928 4444 
z
M 1188 2947 
L 1188 647 
Q 1188 378 1227 289 
Q 1266 200 1342 156 
Q 1419 113 1622 113 
L 1622 0 
L 231 0 
L 231 113 
Q 441 113 512 153 
Q 584 194 626 287 
Q 669 381 669 647 
L 669 1750 
Q 669 2216 641 2353 
Q 619 2453 572 2492 
Q 525 2531 444 2531 
Q 356 2531 231 2484 
L 188 2597 
L 1050 2947 
L 1188 2947 
z
" transform="scale(0.015625)"/>
       <path id="TimesNewRomanPSMT-73" d="M 2050 2947 
L 2050 1972 
L 1947 1972 
Q 1828 2431 1642 2597 
Q 1456 2763 1169 2763 
Q 950 2763 815 2647 
Q 681 2531 681 2391 
Q 681 2216 781 2091 
Q 878 1963 1175 1819 
L 1631 1597 
Q 2266 1288 2266 781 
Q 2266 391 1970 151 
Q 1675 -88 1309 -88 
Q 1047 -88 709 6 
Q 606 38 541 38 
Q 469 38 428 -44 
L 325 -44 
L 325 978 
L 428 978 
Q 516 541 762 319 
Q 1009 97 1316 97 
Q 1531 97 1667 223 
Q 1803 350 1803 528 
Q 1803 744 1651 891 
Q 1500 1038 1047 1263 
Q 594 1488 453 1669 
Q 313 1847 313 2119 
Q 313 2472 555 2709 
Q 797 2947 1181 2947 
Q 1350 2947 1591 2875 
Q 1750 2828 1803 2828 
Q 1853 2828 1881 2850 
Q 1909 2872 1947 2947 
L 2050 2947 
z
" transform="scale(0.015625)"/>
       <path id="TimesNewRomanPSMT-61" d="M 1822 413 
Q 1381 72 1269 19 
Q 1100 -59 909 -59 
Q 613 -59 420 144 
Q 228 347 228 678 
Q 228 888 322 1041 
Q 450 1253 767 1440 
Q 1084 1628 1822 1897 
L 1822 2009 
Q 1822 2438 1686 2597 
Q 1550 2756 1291 2756 
Q 1094 2756 978 2650 
Q 859 2544 859 2406 
L 866 2225 
Q 866 2081 792 2003 
Q 719 1925 600 1925 
Q 484 1925 411 2006 
Q 338 2088 338 2228 
Q 338 2497 613 2722 
Q 888 2947 1384 2947 
Q 1766 2947 2009 2819 
Q 2194 2722 2281 2516 
Q 2338 2381 2338 1966 
L 2338 994 
Q 2338 584 2353 492 
Q 2369 400 2405 369 
Q 2441 338 2488 338 
Q 2538 338 2575 359 
Q 2641 400 2828 588 
L 2828 413 
Q 2478 -56 2159 -56 
Q 2006 -56 1915 50 
Q 1825 156 1822 413 
z
M 1822 616 
L 1822 1706 
Q 1350 1519 1213 1441 
Q 966 1303 859 1153 
Q 753 1003 753 825 
Q 753 600 887 451 
Q 1022 303 1197 303 
Q 1434 303 1822 616 
z
" transform="scale(0.015625)"/>
       <path id="TimesNewRomanPSMT-6e" d="M 1034 2341 
Q 1538 2947 1994 2947 
Q 2228 2947 2397 2830 
Q 2566 2713 2666 2444 
Q 2734 2256 2734 1869 
L 2734 647 
Q 2734 375 2778 278 
Q 2813 200 2889 156 
Q 2966 113 3172 113 
L 3172 0 
L 1756 0 
L 1756 113 
L 1816 113 
Q 2016 113 2095 173 
Q 2175 234 2206 353 
Q 2219 400 2219 647 
L 2219 1819 
Q 2219 2209 2117 2386 
Q 2016 2563 1775 2563 
Q 1403 2563 1034 2156 
L 1034 647 
Q 1034 356 1069 288 
Q 1113 197 1189 155 
Q 1266 113 1500 113 
L 1500 0 
L 84 0 
L 84 113 
L 147 113 
Q 366 113 442 223 
Q 519 334 519 647 
L 519 1709 
Q 519 2225 495 2337 
Q 472 2450 423 2490 
Q 375 2531 294 2531 
Q 206 2531 84 2484 
L 38 2597 
L 900 2947 
L 1034 2947 
L 1034 2341 
z
" transform="scale(0.015625)"/>
       <path id="TimesNewRomanPSMT-63" d="M 2631 1088 
Q 2516 522 2178 217 
Q 1841 -88 1431 -88 
Q 944 -88 581 321 
Q 219 731 219 1428 
Q 219 2103 620 2525 
Q 1022 2947 1584 2947 
Q 2006 2947 2278 2723 
Q 2550 2500 2550 2259 
Q 2550 2141 2473 2067 
Q 2397 1994 2259 1994 
Q 2075 1994 1981 2113 
Q 1928 2178 1911 2362 
Q 1894 2547 1784 2644 
Q 1675 2738 1481 2738 
Q 1169 2738 978 2506 
Q 725 2200 725 1697 
Q 725 1184 976 792 
Q 1228 400 1656 400 
Q 1963 400 2206 609 
Q 2378 753 2541 1131 
L 2631 1088 
z
" transform="scale(0.015625)"/>
       <path id="TimesNewRomanPSMT-28" d="M 1988 -1253 
L 1988 -1369 
Q 1516 -1131 1200 -813 
Q 750 -359 506 256 
Q 263 872 263 1534 
Q 263 2503 741 3301 
Q 1219 4100 1988 4444 
L 1988 4313 
Q 1603 4100 1356 3731 
Q 1109 3363 987 2797 
Q 866 2231 866 1616 
Q 866 947 969 400 
Q 1050 -31 1165 -292 
Q 1281 -553 1476 -793 
Q 1672 -1034 1988 -1253 
z
" transform="scale(0.015625)"/>
       <path id="TimesNewRomanPSMT-29" d="M 144 4313 
L 144 4444 
Q 619 4209 934 3891 
Q 1381 3434 1625 2820 
Q 1869 2206 1869 1541 
Q 1869 572 1392 -226 
Q 916 -1025 144 -1369 
L 144 -1253 
Q 528 -1038 776 -670 
Q 1025 -303 1145 264 
Q 1266 831 1266 1447 
Q 1266 2113 1163 2663 
Q 1084 3094 967 3353 
Q 850 3613 656 3853 
Q 463 4094 144 4313 
z
" transform="scale(0.015625)"/>
      </defs>
      <use xlink:href="#TimesNewRomanPSMT-42"/>
      <use xlink:href="#TimesNewRomanPSMT-75" x="66.699219"/>
      <use xlink:href="#TimesNewRomanPSMT-6d" x="116.699219"/>
      <use xlink:href="#TimesNewRomanPSMT-70" x="194.482422"/>
      <use xlink:href="#TimesNewRomanPSMT-65" x="244.482422"/>
      <use xlink:href="#TimesNewRomanPSMT-72" x="288.867188"/>
      <use xlink:href="#TimesNewRomanPSMT-20" x="322.167969"/>
      <use xlink:href="#TimesNewRomanPSMT-74" x="347.167969"/>
      <use xlink:href="#TimesNewRomanPSMT-6f" x="374.951172"/>
      <use xlink:href="#TimesNewRomanPSMT-20" x="424.951172"/>
      <use xlink:href="#TimesNewRomanPSMT-62" x="449.951172"/>
      <use xlink:href="#TimesNewRomanPSMT-75" x="499.951172"/>
      <use xlink:href="#TimesNewRomanPSMT-6d" x="549.951172"/>
      <use xlink:href="#TimesNewRomanPSMT-70" x="627.734375"/>
      <use xlink:href="#TimesNewRomanPSMT-65" x="677.734375"/>
      <use xlink:href="#TimesNewRomanPSMT-72" x="722.119141"/>
      <use xlink:href="#TimesNewRomanPSMT-20" x="755.419922"/>
      <use xlink:href="#TimesNewRomanPSMT-64" x="780.419922"/>
      <use xlink:href="#TimesNewRomanPSMT-69" x="830.419922"/>
      <use xlink:href="#TimesNewRomanPSMT-73" x="858.203125"/>
      <use xlink:href="#TimesNewRomanPSMT-74" x="897.119141"/>
      <use xlink:href="#TimesNewRomanPSMT-61" x="924.902344"/>
      <use xlink:href="#TimesNewRomanPSMT-6e" x="969.287109"/>
      <use xlink:href="#TimesNewRomanPSMT-63" x="1019.287109"/>
      <use xlink:href="#TimesNewRomanPSMT-65" x="1063.671875"/>
      <use xlink:href="#TimesNewRomanPSMT-20" x="1108.056641"/>
      <use xlink:href="#TimesNewRomanPSMT-28" x="1133.056641"/>
      <use xlink:href="#TimesNewRomanPSMT-6d" x="1166.357422"/>
      <use xlink:href="#TimesNewRomanPSMT-29" x="1244.140625"/>
     </g>
    </g>
   </g>
   <g id="matplotlib.axis_2">
    <g id="ytick_1">
     <g id="line2d_7">
      <defs>
       <path id="m7db0b87061" d="M 0 0 
L -3.5 0 
" style="stroke: #000000; stroke-width: 0.8"/>
      </defs>
      <g>
       <use xlink:href="#m7db0b87061" x="59.657031" y="300.407812" style="stroke: #000000; stroke-width: 0.8"/>
      </g>
     </g>
     <g id="text_8">
      <!-- 0.0 -->
      <g transform="translate(33.907031 305.615625)scale(0.15 -0.15)">
       <defs>
        <path id="TimesNewRomanPSMT-2e" d="M 800 606 
Q 947 606 1047 504 
Q 1147 403 1147 259 
Q 1147 116 1045 14 
Q 944 -88 800 -88 
Q 656 -88 554 14 
Q 453 116 453 259 
Q 453 406 554 506 
Q 656 606 800 606 
z
" transform="scale(0.015625)"/>
       </defs>
       <use xlink:href="#TimesNewRomanPSMT-30"/>
       <use xlink:href="#TimesNewRomanPSMT-2e" x="50"/>
       <use xlink:href="#TimesNewRomanPSMT-30" x="75"/>
      </g>
     </g>
    </g>
    <g id="ytick_2">
     <g id="line2d_8">
      <g>
       <use xlink:href="#m7db0b87061" x="59.657031" y="268.407812" style="stroke: #000000; stroke-width: 0.8"/>
      </g>
     </g>
     <g id="text_9">
      <!-- 0.1 -->
      <g transform="translate(33.907031 273.615625)scale(0.15 -0.15)">
       <use xlink:href="#TimesNewRomanPSMT-30"/>
       <use xlink:href="#TimesNewRomanPSMT-2e" x="50"/>
       <use xlink:href="#TimesNewRomanPSMT-31" x="75"/>
      </g>
     </g>
    </g>
    <g id="ytick_3">
     <g id="line2d_9">
      <g>
       <use xlink:href="#m7db0b87061" x="59.657031" y="236.407812" style="stroke: #000000; stroke-width: 0.8"/>
      </g>
     </g>
     <g id="text_10">
      <!-- 0.2 -->
      <g transform="translate(33.907031 241.615625)scale(0.15 -0.15)">
       <use xlink:href="#TimesNewRomanPSMT-30"/>
       <use xlink:href="#TimesNewRomanPSMT-2e" x="50"/>
       <use xlink:href="#TimesNewRomanPSMT-32" x="75"/>
      </g>
     </g>
    </g>
    <g id="ytick_4">
     <g id="line2d_10">
      <g>
       <use xlink:href="#m7db0b87061" x="59.657031" y="204.407812" style="stroke: #000000; stroke-width: 0.8"/>
      </g>
     </g>
     <g id="text_11">
      <!-- 0.3 -->
      <g transform="translate(33.907031 209.615625)scale(0.15 -0.15)">
       <defs>
        <path id="TimesNewRomanPSMT-33" d="M 325 3431 
Q 506 3859 782 4092 
Q 1059 4325 1472 4325 
Q 1981 4325 2253 3994 
Q 2459 3747 2459 3466 
Q 2459 3003 1878 2509 
Q 2269 2356 2469 2072 
Q 2669 1788 2669 1403 
Q 2669 853 2319 450 
Q 1863 -75 997 -75 
Q 569 -75 414 31 
Q 259 138 259 259 
Q 259 350 332 419 
Q 406 488 509 488 
Q 588 488 669 463 
Q 722 447 909 348 
Q 1097 250 1169 231 
Q 1284 197 1416 197 
Q 1734 197 1970 444 
Q 2206 691 2206 1028 
Q 2206 1275 2097 1509 
Q 2016 1684 1919 1775 
Q 1784 1900 1550 2001 
Q 1316 2103 1072 2103 
L 972 2103 
L 972 2197 
Q 1219 2228 1467 2375 
Q 1716 2522 1828 2728 
Q 1941 2934 1941 3181 
Q 1941 3503 1739 3701 
Q 1538 3900 1238 3900 
Q 753 3900 428 3381 
L 325 3431 
z
" transform="scale(0.015625)"/>
       </defs>
       <use xlink:href="#TimesNewRomanPSMT-30"/>
       <use xlink:href="#TimesNewRomanPSMT-2e" x="50"/>
       <use xlink:href="#TimesNewRomanPSMT-33" x="75"/>
      </g>
     </g>
    </g>
    <g id="ytick_5">
     <g id="line2d_11">
      <g>
       <use xlink:href="#m7db0b87061" x="59.657031" y="172.407812" style="stroke: #000000; stroke-width: 0.8"/>
      </g>
     </g>
     <g id="text_12">
      <!-- 0.4 -->
      <g transform="translate(33.907031 177.615625)scale(0.15 -0.15)">
       <use xlink:href="#TimesNewRomanPSMT-30"/>
       <use xlink:href="#TimesNewRomanPSMT-2e" x="50"/>
       <use xlink:href="#TimesNewRomanPSMT-34" x="75"/>
      </g>
     </g>
    </g>
    <g id="ytick_6">
     <g id="line2d_12">
      <g>
       <use xlink:href="#m7db0b87061" x="59.657031" y="140.407812" style="stroke: #000000; stroke-width: 0.8"/>
      </g>
     </g>
     <g id="text_13">
      <!-- 0.5 -->
      <g transform="translate(33.907031 145.615625)scale(0.15 -0.15)">
       <defs>
        <path id="TimesNewRomanPSMT-35" d="M 2778 4238 
L 2534 3706 
L 1259 3706 
L 981 3138 
Q 1809 3016 2294 2522 
Q 2709 2097 2709 1522 
Q 2709 1188 2573 903 
Q 2438 619 2231 419 
Q 2025 219 1772 97 
Q 1413 -75 1034 -75 
Q 653 -75 479 54 
Q 306 184 306 341 
Q 306 428 378 495 
Q 450 563 559 563 
Q 641 563 702 538 
Q 763 513 909 409 
Q 1144 247 1384 247 
Q 1750 247 2026 523 
Q 2303 800 2303 1197 
Q 2303 1581 2056 1914 
Q 1809 2247 1375 2428 
Q 1034 2569 447 2591 
L 1259 4238 
L 2778 4238 
z
" transform="scale(0.015625)"/>
       </defs>
       <use xlink:href="#TimesNewRomanPSMT-30"/>
       <use xlink:href="#TimesNewRomanPSMT-2e" x="50"/>
       <use xlink:href="#TimesNewRomanPSMT-35" x="75"/>
      </g>
     </g>
    </g>
    <g id="ytick_7">
     <g id="line2d_13">
      <g>
       <use xlink:href="#m7db0b87061" x="59.657031" y="108.407812" style="stroke: #000000; stroke-width: 0.8"/>
      </g>
     </g>
     <g id="text_14">
      <!-- 0.6 -->
      <g transform="translate(33.907031 113.615625)scale(0.15 -0.15)">
       <use xlink:href="#TimesNewRomanPSMT-30"/>
       <use xlink:href="#TimesNewRomanPSMT-2e" x="50"/>
       <use xlink:href="#TimesNewRomanPSMT-36" x="75"/>
      </g>
     </g>
    </g>
    <g id="ytick_8">
     <g id="line2d_14">
      <g>
       <use xlink:href="#m7db0b87061" x="59.657031" y="76.407812" style="stroke: #000000; stroke-width: 0.8"/>
      </g>
     </g>
     <g id="text_15">
      <!-- 0.7 -->
      <g transform="translate(33.907031 81.615625)scale(0.15 -0.15)">
       <defs>
        <path id="TimesNewRomanPSMT-37" d="M 644 4238 
L 2916 4238 
L 2916 4119 
L 1503 -88 
L 1153 -88 
L 2419 3728 
L 1253 3728 
Q 900 3728 750 3644 
Q 488 3500 328 3200 
L 238 3234 
L 644 4238 
z
" transform="scale(0.015625)"/>
       </defs>
       <use xlink:href="#TimesNewRomanPSMT-30"/>
       <use xlink:href="#TimesNewRomanPSMT-2e" x="50"/>
       <use xlink:href="#TimesNewRomanPSMT-37" x="75"/>
      </g>
     </g>
    </g>
    <g id="ytick_9">
     <g id="line2d_15">
      <g>
       <use xlink:href="#m7db0b87061" x="59.657031" y="44.407812" style="stroke: #000000; stroke-width: 0.8"/>
      </g>
     </g>
     <g id="text_16">
      <!-- 0.8 -->
      <g transform="translate(33.907031 49.615625)scale(0.15 -0.15)">
       <use xlink:href="#TimesNewRomanPSMT-30"/>
       <use xlink:href="#TimesNewRomanPSMT-2e" x="50"/>
       <use xlink:href="#TimesNewRomanPSMT-38" x="75"/>
      </g>
     </g>
    </g>
    <g id="ytick_10">
     <g id="line2d_16">
      <g>
       <use xlink:href="#m7db0b87061" x="59.657031" y="12.407812" style="stroke: #000000; stroke-width: 0.8"/>
      </g>
     </g>
     <g id="text_17">
      <!-- 0.9 -->
      <g transform="translate(33.907031 17.615625)scale(0.15 -0.15)">
       <defs>
        <path id="TimesNewRomanPSMT-39" d="M 338 -88 
L 338 28 
Q 744 34 1094 217 
Q 1444 400 1770 856 
Q 2097 1313 2225 1859 
Q 1734 1544 1338 1544 
Q 891 1544 572 1889 
Q 253 2234 253 2806 
Q 253 3363 572 3797 
Q 956 4325 1575 4325 
Q 2097 4325 2469 3894 
Q 2925 3359 2925 2575 
Q 2925 1869 2578 1258 
Q 2231 647 1613 244 
Q 1109 -88 516 -88 
L 338 -88 
z
M 2275 2091 
Q 2331 2497 2331 2741 
Q 2331 3044 2228 3395 
Q 2125 3747 1936 3934 
Q 1747 4122 1506 4122 
Q 1228 4122 1018 3872 
Q 809 3622 809 3128 
Q 809 2469 1088 2097 
Q 1291 1828 1588 1828 
Q 1731 1828 1928 1897 
Q 2125 1966 2275 2091 
z
" transform="scale(0.015625)"/>
       </defs>
       <use xlink:href="#TimesNewRomanPSMT-30"/>
       <use xlink:href="#TimesNewRomanPSMT-2e" x="50"/>
       <use xlink:href="#TimesNewRomanPSMT-39" x="75"/>
      </g>
     </g>
    </g>
    <g id="text_18">
     <!-- Frequency -->
     <g transform="translate(24.5125 209.167578)rotate(-90)scale(0.25 -0.25)">
      <defs>
       <path id="TimesNewRomanPSMT-46" d="M 1309 4006 
L 1309 2341 
L 2081 2341 
Q 2347 2341 2470 2458 
Q 2594 2575 2634 2922 
L 2750 2922 
L 2750 1488 
L 2634 1488 
Q 2631 1734 2570 1850 
Q 2509 1966 2401 2023 
Q 2294 2081 2081 2081 
L 1309 2081 
L 1309 750 
Q 1309 428 1350 325 
Q 1381 247 1481 191 
Q 1619 116 1769 116 
L 1922 116 
L 1922 0 
L 103 0 
L 103 116 
L 253 116 
Q 516 116 634 269 
Q 709 369 709 750 
L 709 3488 
Q 709 3809 669 3913 
Q 638 3991 541 4047 
Q 406 4122 253 4122 
L 103 4122 
L 103 4238 
L 3256 4238 
L 3297 3306 
L 3188 3306 
Q 3106 3603 2998 3742 
Q 2891 3881 2733 3943 
Q 2575 4006 2244 4006 
L 1309 4006 
z
" transform="scale(0.015625)"/>
       <path id="TimesNewRomanPSMT-71" d="M 2734 2947 
L 2734 -734 
Q 2734 -1009 2771 -1087 
Q 2809 -1166 2889 -1209 
Q 2969 -1253 3200 -1253 
L 3200 -1369 
L 1756 -1369 
L 1756 -1253 
L 1816 -1253 
Q 1991 -1253 2081 -1203 
Q 2144 -1169 2181 -1080 
Q 2219 -991 2219 -734 
L 2219 497 
Q 1934 159 1721 35 
Q 1509 -88 1281 -88 
Q 866 -88 539 290 
Q 213 669 213 1303 
Q 213 2031 644 2489 
Q 1075 2947 1684 2947 
Q 1863 2947 2013 2897 
Q 2163 2847 2281 2747 
Q 2463 2834 2628 2947 
L 2734 2947 
z
M 2219 694 
L 2219 2038 
Q 2219 2272 2158 2406 
Q 2097 2541 1940 2634 
Q 1784 2728 1588 2728 
Q 1238 2728 988 2431 
Q 738 2134 738 1531 
Q 738 953 992 653 
Q 1247 353 1606 353 
Q 1791 353 1934 433 
Q 2078 513 2219 694 
z
" transform="scale(0.015625)"/>
       <path id="TimesNewRomanPSMT-79" d="M 38 2863 
L 1372 2863 
L 1372 2747 
L 1306 2747 
Q 1166 2747 1095 2686 
Q 1025 2625 1025 2534 
Q 1025 2413 1128 2197 
L 1825 753 
L 2466 2334 
Q 2519 2463 2519 2588 
Q 2519 2644 2497 2672 
Q 2472 2706 2419 2726 
Q 2366 2747 2231 2747 
L 2231 2863 
L 3163 2863 
L 3163 2747 
Q 3047 2734 2984 2696 
Q 2922 2659 2847 2556 
Q 2819 2513 2741 2316 
L 1575 -541 
Q 1406 -956 1132 -1168 
Q 859 -1381 606 -1381 
Q 422 -1381 303 -1275 
Q 184 -1169 184 -1031 
Q 184 -900 270 -820 
Q 356 -741 506 -741 
Q 609 -741 788 -809 
Q 913 -856 944 -856 
Q 1038 -856 1148 -759 
Q 1259 -663 1372 -384 
L 1575 113 
L 547 2272 
Q 500 2369 397 2513 
Q 319 2622 269 2659 
Q 197 2709 38 2747 
L 38 2863 
z
" transform="scale(0.015625)"/>
      </defs>
      <use xlink:href="#TimesNewRomanPSMT-46"/>
      <use xlink:href="#TimesNewRomanPSMT-72" x="55.615234"/>
      <use xlink:href="#TimesNewRomanPSMT-65" x="88.916016"/>
      <use xlink:href="#TimesNewRomanPSMT-71" x="133.300781"/>
      <use xlink:href="#TimesNewRomanPSMT-75" x="183.300781"/>
      <use xlink:href="#TimesNewRomanPSMT-65" x="233.300781"/>
      <use xlink:href="#TimesNewRomanPSMT-6e" x="277.685547"/>
      <use xlink:href="#TimesNewRomanPSMT-63" x="327.685547"/>
      <use xlink:href="#TimesNewRomanPSMT-79" x="372.070312"/>
     </g>
    </g>
   </g>
   <g id="patch_101">
    <path d="M 59.657031 300.407812 
L 59.657031 12.407812 
" style="fill: none; stroke: #000000; stroke-width: 0.8; stroke-linejoin: miter; stroke-linecap: square"/>
   </g>
   <g id="patch_102">
    <path d="M 455.657031 300.407812 
L 455.657031 12.407812 
" style="fill: none; stroke: #000000; stroke-width: 0.8; stroke-linejoin: miter; stroke-linecap: square"/>
   </g>
   <g id="patch_103">
    <path d="M 59.657031 300.407812 
L 455.657031 300.407812 
" style="fill: none; stroke: #000000; stroke-width: 0.8; stroke-linejoin: miter; stroke-linecap: square"/>
   </g>
   <g id="patch_104">
    <path d="M 59.657031 12.407812 
L 455.657031 12.407812 
" style="fill: none; stroke: #000000; stroke-width: 0.8; stroke-linejoin: miter; stroke-linecap: square"/>
   </g>
   <g id="legend_1">
    <g id="patch_105">
     <path d="M 70.157031 66.825 
L 155.657031 66.825 
Q 158.657031 66.825 158.657031 63.825 
L 158.657031 22.907812 
Q 158.657031 19.907812 155.657031 19.907812 
L 70.157031 19.907812 
Q 67.157031 19.907812 67.157031 22.907812 
L 67.157031 63.825 
Q 67.157031 66.825 70.157031 66.825 
z
" style="fill: #ffffff; opacity: 0.8; stroke: #cccccc; stroke-linejoin: miter"/>
    </g>
    <g id="patch_106">
     <path d="M 73.157031 36.407812 
L 103.157031 36.407812 
L 103.157031 25.907812 
L 73.157031 25.907812 
z
" style="fill: #130074; opacity: 0.75"/>
    </g>
    <g id="text_19">
     <!-- NDE -->
     <g transform="translate(115.157031 36.407812)scale(0.15 -0.15)">
      <defs>
       <path id="TimesNewRomanPSMT-4e" d="M -84 4238 
L 1066 4238 
L 3656 1059 
L 3656 3503 
Q 3656 3894 3569 3991 
Q 3453 4122 3203 4122 
L 3056 4122 
L 3056 4238 
L 4531 4238 
L 4531 4122 
L 4381 4122 
Q 4113 4122 4000 3959 
Q 3931 3859 3931 3503 
L 3931 -69 
L 3819 -69 
L 1025 3344 
L 1025 734 
Q 1025 344 1109 247 
Q 1228 116 1475 116 
L 1625 116 
L 1625 0 
L 150 0 
L 150 116 
L 297 116 
Q 569 116 681 278 
Q 750 378 750 734 
L 750 3681 
Q 566 3897 470 3965 
Q 375 4034 191 4094 
Q 100 4122 -84 4122 
L -84 4238 
z
" transform="scale(0.015625)"/>
       <path id="TimesNewRomanPSMT-44" d="M 109 0 
L 109 116 
L 269 116 
Q 538 116 650 288 
Q 719 391 719 750 
L 719 3488 
Q 719 3884 631 3984 
Q 509 4122 269 4122 
L 109 4122 
L 109 4238 
L 1834 4238 
Q 2784 4238 3279 4022 
Q 3775 3806 4076 3303 
Q 4378 2800 4378 2141 
Q 4378 1256 3841 663 
Q 3238 0 2003 0 
L 109 0 
z
M 1319 306 
Q 1716 219 1984 219 
Q 2709 219 3187 728 
Q 3666 1238 3666 2109 
Q 3666 2988 3187 3494 
Q 2709 4000 1959 4000 
Q 1678 4000 1319 3909 
L 1319 306 
z
" transform="scale(0.015625)"/>
       <path id="TimesNewRomanPSMT-45" d="M 1338 4006 
L 1338 2331 
L 2269 2331 
Q 2631 2331 2753 2441 
Q 2916 2584 2934 2947 
L 3050 2947 
L 3050 1472 
L 2934 1472 
Q 2891 1781 2847 1869 
Q 2791 1978 2662 2040 
Q 2534 2103 2269 2103 
L 1338 2103 
L 1338 706 
Q 1338 425 1363 364 
Q 1388 303 1450 267 
Q 1513 231 1688 231 
L 2406 231 
Q 2766 231 2928 281 
Q 3091 331 3241 478 
Q 3434 672 3638 1063 
L 3763 1063 
L 3397 0 
L 131 0 
L 131 116 
L 281 116 
Q 431 116 566 188 
Q 666 238 702 338 
Q 738 438 738 747 
L 738 3500 
Q 738 3903 656 3997 
Q 544 4122 281 4122 
L 131 4122 
L 131 4238 
L 3397 4238 
L 3444 3309 
L 3322 3309 
Q 3256 3644 3176 3769 
Q 3097 3894 2941 3959 
Q 2816 4006 2500 4006 
L 1338 4006 
z
" transform="scale(0.015625)"/>
      </defs>
      <use xlink:href="#TimesNewRomanPSMT-4e"/>
      <use xlink:href="#TimesNewRomanPSMT-44" x="72.216797"/>
      <use xlink:href="#TimesNewRomanPSMT-45" x="144.433594"/>
     </g>
    </g>
    <g id="patch_107">
     <path d="M 73.157031 57.616406 
L 103.157031 57.616406 
L 103.157031 47.116406 
L 73.157031 47.116406 
z
" style="fill: #830518; opacity: 0.75"/>
    </g>
    <g id="text_20">
     <!-- D2RL -->
     <g transform="translate(115.157031 57.616406)scale(0.15 -0.15)">
      <defs>
       <path id="TimesNewRomanPSMT-52" d="M 4325 0 
L 3194 0 
L 1759 1981 
Q 1600 1975 1500 1975 
Q 1459 1975 1412 1976 
Q 1366 1978 1316 1981 
L 1316 750 
Q 1316 350 1403 253 
Q 1522 116 1759 116 
L 1925 116 
L 1925 0 
L 109 0 
L 109 116 
L 269 116 
Q 538 116 653 291 
Q 719 388 719 750 
L 719 3488 
Q 719 3888 631 3984 
Q 509 4122 269 4122 
L 109 4122 
L 109 4238 
L 1653 4238 
Q 2328 4238 2648 4139 
Q 2969 4041 3192 3777 
Q 3416 3513 3416 3147 
Q 3416 2756 3161 2468 
Q 2906 2181 2372 2063 
L 3247 847 
Q 3547 428 3762 290 
Q 3978 153 4325 116 
L 4325 0 
z
M 1316 2178 
Q 1375 2178 1419 2176 
Q 1463 2175 1491 2175 
Q 2097 2175 2405 2437 
Q 2713 2700 2713 3106 
Q 2713 3503 2464 3751 
Q 2216 4000 1806 4000 
Q 1625 4000 1316 3941 
L 1316 2178 
z
" transform="scale(0.015625)"/>
       <path id="TimesNewRomanPSMT-4c" d="M 3669 1172 
L 3772 1150 
L 3409 0 
L 128 0 
L 128 116 
L 288 116 
Q 556 116 672 291 
Q 738 391 738 753 
L 738 3488 
Q 738 3884 650 3984 
Q 528 4122 288 4122 
L 128 4122 
L 128 4238 
L 2047 4238 
L 2047 4122 
Q 1709 4125 1573 4059 
Q 1438 3994 1388 3894 
Q 1338 3794 1338 3416 
L 1338 753 
Q 1338 494 1388 397 
Q 1425 331 1503 300 
Q 1581 269 1991 269 
L 2300 269 
Q 2788 269 2984 341 
Q 3181 413 3343 595 
Q 3506 778 3669 1172 
z
" transform="scale(0.015625)"/>
      </defs>
      <use xlink:href="#TimesNewRomanPSMT-44"/>
      <use xlink:href="#TimesNewRomanPSMT-32" x="72.216797"/>
      <use xlink:href="#TimesNewRomanPSMT-52" x="122.216797"/>
      <use xlink:href="#TimesNewRomanPSMT-4c" x="188.916016"/>
     </g>
    </g>
   </g>
  </g>
 </g>
 <defs>
  <clipPath id="p01ef41166e">
   <rect x="59.657031" y="12.407812" width="396" height="288"/>
  </clipPath>
 </defs>
</svg>
